<?xml version="1.0" encoding="utf-8"?>
<!-- Generator: Adobe Illustrator 25.2.0, SVG Export Plug-In . SVG Version: 6.00 Build 0)  -->
<svg version="1.1" id="レイヤー_1" xmlns="http://www.w3.org/2000/svg" xmlns:xlink="http://www.w3.org/1999/xlink" x="0px"
	 y="0px" viewBox="0 0 649.9 640.7" style="enable-background:new 0 0 649.9 640.7;" xml:space="preserve">
<style type="text/css">
	.st0{fill:#FFFFFF;}
</style>
<path class="st0" d="M290.5,231.8c1.9,29.2-49.4,29.2-47.5,0v-41.2c-1.9-29.1,49.4-29.2,47.5,0V231.8z M255.3,231.8
	c-1.8,19.7,24.5,17.8,23,0v-41.2c1.6-17.8-24.8-19.8-23,0L255.3,231.8L255.3,231.8z"/>
<path class="st0" d="M330.2,177.2v67.9l5.2,3.7v4h-22.9v-4l5.2-3.7v-67.9h-8.9l-3.8,13.6h-5.7l0.5-21.1H348l0.5,21.1h-5.7l-4-13.6
	L330.2,177.2L330.2,177.2z"/>
<path class="st0" d="M360.2,247l4.3,2.1v3.7h-16.2v-3.7l4.2-2.2c5.9-24.5,12.6-53.2,18.6-77.6h12.2l19.1,77.2l4.3,2.6v3.7h-21.1
	v-3.1l4.3-2.6l-3.9-16.7h-21.8L360.2,247z M365.7,223.7h18.6l-9.2-39.9H375L365.7,223.7z"/>
<path class="st0" d="M173.1,295.1h-5.7l-3.6-12.8H146v31.1h12.8l3.1-6.5h3.7v20H162l-3.1-6.3h-12.8v30.7l5.2,3.5v3.4h-22.5v-3.4
	l5.3-3.5v-68.9l-4.5-3.7v-3.4h43.5L173.1,295.1z"/>
<path class="st0" d="M185.5,352.5l4.3,2.1v3.7h-16.2v-3.7l4.3-2.2c5.9-24.5,12.6-53.2,18.6-77.6h12.2l19.1,77.2l4.3,2.6v3.7H211
	v-3.1l4.3-2.6l-3.9-16.7h-21.8L185.5,352.5z M190.9,329.2h18.6l-9.2-39.9h-0.1L190.9,329.2z"/>
<path class="st0" d="M282.2,298.3h-12.3c3.8-17.3-21.6-24.2-21.4-1.8v41.1c-0.4,22.9,27.3,15.6,22.2-3.5H283
	c5.9,31.7-47.6,35.5-46.8,3.5c-0.2-25.8-6.8-81.3,36.6-58h0.4l1-4.5h8.2L282.2,298.3z"/>
<path class="st0" d="M325,282.8v67.9l5.2,3.7v4h-22.9v-4l5.2-3.7v-67.9h-8.9l-3.8,13.6h-5.7l0.5-21.1h48.2l0.5,21.1h-5.7l-4-13.6
	H325z"/>
<path class="st0" d="M399.9,337.4c1.9,29.2-49.4,29.2-47.5,0v-41.2c-1.9-29.2,49.4-29.2,47.5,0V337.4z M364.7,337.4
	c-1.8,19.7,24.5,17.8,23,0v-41.2c1.6-17.8-24.7-19.8-23,0V337.4z"/>
<path class="st0" d="M437.5,332.3c-2.4-6.4-4.5-8.1-11.5-8.1v27.1l5.2,3.5v3.4h-22.5v-3.4l5.2-3.5v-69.5l-4.4-3.1v-3.4
	c16.2,0.9,47.8-5.9,47.3,19.3c1.1,11.2-0.7,27-13.4,28.2c11,4.5,7.2,28.2,19.1,30.1v4.6C445,366.3,442.6,343.6,437.5,332.3z
	 M425.9,282.6v34.7c18.7,2.3,19.5-7,18.6-22.8C445.7,282.8,435.1,281.9,425.9,282.6L425.9,282.6z"/>
<path class="st0" d="M486.4,321.9L469.2,280l-3.3-1.2v-3.4c5.1,0.7,16.1-2.6,17.3,4.9l11.4,29.4l11.4-28.6l-4.5-2.3v-3.3h17.1v3.3
	l-4.4,2.3l-15.3,39.3v30.4l5.2,3.7v3.9h-22.9v-3.9l5.2-3.7V321.9z"/>
<rect x="205.9" y="407.9" class="st0" width="238" height="6.6"/>
<path class="st0" d="M167,408.5c1.2,2.3,6,8.8,6.2,11.2c-1.1,11.5-12.4,7.1-15.2-1.4l-6.8,4.2l-1.9-3.1L167,408.5z M160.5,416.8
	c4.8,11.3,14,5.8,5.9-3.6L160.5,416.8z"/>
<path class="st0" d="M176.9,424.3c5.7,5.5,14.5,20.2-0.4,17.3h-0.1c2.4,4.1-4.5,6.1-5.2,9.4l-2.4-3.1c6-5.7,6.4-6.8,0.6-13.2
	l-6.8,5.3l-2.2-2.9L176.9,424.3z M171.6,433c6.4,11.5,14.7,5,5.1-4L171.6,433z"/>
<path class="st0" d="M195.6,445.9c9.4,9.2-6.8,24.9-15.7,15.2C170.5,451.9,186.7,436.2,195.6,445.9z M193.4,447.9
	c-5.8-6.2-17.4,5-11.4,11.1C187.9,465.2,199.5,453.9,193.4,447.9z"/>
<path class="st0" d="M204,455l4,3.2l-5.7,16.3l0,0l14.6-9.3l4,3.2l-13,16.3l-2.7-2.2l10-12.6l0,0l-14.5,9l-2.4-1.9l5.5-16.2h-0.1
	l-10,12.6l-2.7-2.2L204,455z"/>
<path class="st0" d="M231.6,474.6c11.4,6.5-0.2,25.8-11.3,18.7C208.8,486.7,220.5,467.5,231.6,474.6z M230.1,477.1
	c-7.2-4.5-15.6,9.3-8.2,13.6C229.1,495.2,237.4,481.4,230.1,477.1L230.1,477.1z"/>
<path class="st0" d="M240.5,480.4l15.3,7.2l-1.3,2.9l-6-2.8l-7.5,16l-3.3-1.6l7.5-16l-6-2.8L240.5,480.4z"/>
<path class="st0" d="M257.6,488.1l3.4,1.3l-7.6,19.4l-3.4-1.3L257.6,488.1z"/>
<path class="st0" d="M273.2,493c12.7,3.4,6.3,25-6.3,20.9C254.2,510.5,260.7,488.9,273.2,493z M272.3,495.9
	c-8.1-2.6-12.8,12.9-4.5,15.2C275.9,513.7,280.5,498.2,272.3,495.9L272.3,495.9z"/>
<path class="st0" d="M284.9,496.8l3.8,0.7l6.7,16.8h0.1l2.7-15.1l3.4,0.6l-3.6,20.5l-3.8-0.7l-6.7-16.7h-0.1l-2.7,15.1l-3.4-0.6
	L284.9,496.8z"/>
<path class="st0" d="M312.8,500.9c6.3-0.8,23.9,1,13.1,9.9v0.1c5.4,1.1,4.9,9.8-0.5,10.7c-2.2,0.8-10.6,0.1-13,0.2L312.8,500.9z
	 M316,518.8c13.4,2.3,13.7-8.2,0.1-6.5L316,518.8z M316.3,509.6c12.1,2,12.5-7.3,0.1-5.7L316.3,509.6z"/>
<path class="st0" d="M339.1,513.2l-8.8-12l4.2-0.3l6.2,8.9l4.6-9.8l4.1-0.3l-6.7,13.3l0.7,8.1l-3.6,0.3L339.1,513.2z"/>
<path class="st0" d="M367,495.6c12.7-3.4,18,18.5,5.1,21.2C359.4,520.3,354.2,498.4,367,495.6z M367.7,498.5
	c-8.3,1.9-4.6,17.6,3.7,15.4C379.7,512.1,376,496.4,367.7,498.5L367.7,498.5z"/>
<path class="st0" d="M377.4,493.6l15.9-5.6l1,3l-6.2,2.2l5.9,16.6l-3.5,1.2l-5.9-16.7l-6.2,2.2L377.4,493.6z"/>
<path class="st0" d="M399.8,484.9l3.5-1.6l16.1,15.5l-3.5,1.7l-4.1-4.2l-7.5,3.5l0.6,5.8l-3.4,1.6L399.8,484.9z M404,496.8l5.8-2.7
	l-6.6-6.8H403L404,496.8z"/>
<path class="st0" d="M445.1,482.4l-1.9,1.3l-1.8-1.7c-1.6,11.6-18,8.7-19.7-1.4c-3-8.5,9.1-17.2,15.4-9.9l-3,2
	c-8-6.1-12.8,7.4-5.6,11.9c4.6,5.1,13.8-1.3,9.4-7.2l-4.6,3.1l-1.5-2.3l7.4-5L445.1,482.4z"/>
<path class="st0" d="M435.8,463.4l2.8-2.4c3.8,2.8,9.6,16.3,15.5,10.6c6.5-4.9-5.9-12.9-8.1-17l2.8-2.4c4.1,5.5,16.8,15.1,7.4,21.8
	C448.1,482.3,440.6,468.3,435.8,463.4z"/>
<path class="st0" d="M451.1,450l2.6-2.8l17.7,3.5l0,0l-11.2-10.5l2.4-2.5l15.2,14.2l-2.6,2.8l-17.7-3.5l-0.1,0.1l11.2,10.5l-2.4,2.5
	L451.1,450z"/>
<path class="st0" d="M465,435.1l3-4.2l16.6,4.9l0,0l-9.9-14.1l3-4.1l16.9,12.2l-2,2.8l-13-9.5l0,0l9.6,14.1l-1.8,2.4L471,435l0,0
	l13,9.5l-2,2.8L465,435.1z"/>
<path class="st0" d="M482.1,409.7l1.9-3.4l22.1,3.1l-1.9,3.4l-5.8-1l-4,7.3l3.9,4.4l-1.8,3.3L482.1,409.7z M492.5,416.9l3.1-5.6
	l-9.4-1.6v0.1L492.5,416.9z"/>
<path class="st0" d="M645.9,270.1c-0.1-0.4-0.1-0.9-0.2-1.3l-78.2,15.1L645.9,270.1z"/>
<path class="st0" d="M124.3,577.2l0.2,0.1l14.8-17.9L124.3,577.2z"/>
<path class="st0" d="M626.5,195.3L626.5,195.3l-8.6,3.4L626.5,195.3z"/>
<path class="st0" d="M217.7,16.4l-0.2,0.1l25.9,74.4L217.7,16.4z"/>
<path class="st0" d="M580.8,116l-0.3-0.4l-28.5,22L580.8,116z"/>
<path class="st0" d="M647.5,358.7c0-0.4,0.1-0.8,0.1-1.2l-72.8-6.4L647.5,358.7z"/>
<path class="st0" d="M439.2,622l0.2-0.1l-4.1-11.5L439.2,622z"/>
<path class="st0" d="M645.5,267.4c0-0.1,0-0.2,0-0.3l-28.8,6L645.5,267.4z"/>
<path class="st0" d="M582,117.5l-0.2-0.3L541.5,148L582,117.5z"/>
<path class="st0" d="M523.6,62l-1.7-1.2l-44.6,56.3L523.6,62z"/>
<path class="st0" d="M69.2,524.8L69.2,524.8l10.3-7.9L69.2,524.8z"/>
<path class="st0" d="M68.2,523.5l0.1,0.2L88,508.5L68.2,523.5z"/>
<path class="st0" d="M71.6,360.1l-67.2,13c0.1,0.5,0.2,1,0.2,1.5l66.9-12.9L71.6,360.1z"/>
<path class="st0" d="M20.5,202.8c-0.1,0.3-0.2,0.5-0.3,0.8l49.6,20.1L20.5,202.8z"/>
<path class="st0" d="M4,370.5c0.1,0.4,0.1,0.8,0.2,1.2l72.6-14L4,370.5z"/>
<path class="st0" d="M625.9,193.8l-0.2-0.4l-28.9,11.5L625.9,193.8z"/>
<path class="st0" d="M257.6,92.4l-24.4-80.5l-3.4,0.9l24.4,80.5C255.4,93,256.6,92.7,257.6,92.4z"/>
<path class="st0" d="M127.8,180.2l-70.1-49.1l-2,2.9l70.2,49.1C126.5,182.1,127.2,181.2,127.8,180.2z"/>
<path class="st0" d="M170.5,135.4l-54.9-65.3l-1.1,0.9l54.9,65.3L170.5,135.4z"/>
<path class="st0" d="M214.7,108l-39.8-74.8c-1.5,0.7-2.9,1.4-4.4,2.1l39.8,74.8C211.8,109.5,213.3,108.7,214.7,108z"/>
<path class="st0" d="M187,123.5l-50.1-68.9l-2.3,1.5l50.1,68.9C185.5,124.6,186.2,124,187,123.5z"/>
<path class="st0" d="M182,126.9l-50.4-68.7l-1.6,1.1l50.1,68.9L182,126.9z"/>
<path class="st0" d="M184.2,125.4l-50.3-68.7l-1.2,0.8l50.1,68.9L184.2,125.4z"/>
<path class="st0" d="M135.4,170.2l-67.5-52.7l-2.2,2.7l67.5,52.7C134,172,134.7,171.1,135.4,170.2z"/>
<path class="st0" d="M240.6,97.6l-28.4-79.4c-1.1,0.4-2.2,0.7-3.2,1.1c6.6,18.1,16.6,45.6,28.9,79.2L240.6,97.6z"/>
<path class="st0" d="M247.3,95.4l-17-48c5.3,14.1,11.2,30.2,17.7,47.8l1.1-0.3l-28.8-79.2l-2.5,0.8L243.5,91l-25.9-74.4l-2.7,0.9
	L242.2,97C243.9,96.5,245.6,95.9,247.3,95.4z"/>
<path class="st0" d="M162.5,142l-59.8-61.1l-1.1,1l59.4,61.4L162.5,142z"/>
<path class="st0" d="M160,144.3l-59.7-61.2l-1.1,1l59.4,61.4L160,144.3z"/>
<path class="st0" d="M165.5,139.4l-59.4-61.5l-1.3,1.1l59.4,61.5L165.5,139.4z"/>
<path class="st0" d="M157.5,146.5L97.8,85.3l-1.9,1.8l59.4,61.5L157.5,146.5z"/>
<path class="st0" d="M153.6,150.2l-59.8-61c-1.3,1.3-2.7,2.6-4,3.9l59.4,61.5C150.6,153.1,152.1,151.6,153.6,150.2z"/>
<path class="st0" d="M554.3,247.7l81.1-26.3c-0.3-1.1-0.7-2.2-1-3.3l-81.1,26.3C553.7,245.4,554,246.6,554.3,247.7z"/>
<path class="st0" d="M494.5,148.5L553.9,87c-1.2-1.1-2.4-2.2-3.6-3.3l-59.4,61.4C492.1,146.2,493.3,147.4,494.5,148.5z"/>
<path class="st0" d="M533.5,198.3l73.2-44.3c-1.2-2-2.3-4-3.5-6L530,192.3C531.2,194.2,532.4,196.2,533.5,198.3z"/>
<path class="st0" d="M547.6,227.7l79.5-31c-0.2-0.5-0.4-1-0.5-1.4l-8.6,3.3l8.6-3.4l-0.5-1.4l-29,11.1l28.9-11.5
	c-0.2-0.5-0.4-1.1-0.6-1.6l-79.3,31.7C546.5,225,547,226.3,547.6,227.7z"/>
<path class="st0" d="M548.4,230l79.6-30.9c-0.2-0.5-0.3-0.9-0.5-1.4l-79.7,30.6C548,228.9,548.2,229.4,548.4,230z"/>
<path class="st0" d="M549.8,233.7l79.5-30.9l-0.9-2.4L548.7,231C549.1,231.8,549.5,232.8,549.8,233.7z"/>
<path class="st0" d="M550.8,236.6l4.5-1.7L550.8,236.6l0.5,1.4l79.3-31.8l-0.7-2l-79.7,30.6C550.4,235.3,550.6,235.9,550.8,236.6z"
	/>
<path class="st0" d="M514.9,170.8l68-52l-1-1.2l-40.6,30.5l40.3-30.8l-1-1.2L552,137.7l28.4-22.1c-0.3-0.4-0.7-0.9-1.1-1.3
	L511.9,167C512.9,168.2,513.9,169.5,514.9,170.8z"/>
<path class="st0" d="M519.2,176.3l67.5-52.7l-0.8-1.1l-67.5,52.7L519.2,176.3z"/>
<path class="st0" d="M517.1,173.6l67.9-52.1l-1-1.2l-68.4,51.5C516.2,172.3,516.7,173,517.1,173.6z"/>
<path class="st0" d="M526.4,186.7l71-47.9c-0.6-1-1.3-1.9-1.9-2.9l-71,47.8C525.2,184.8,525.8,185.7,526.4,186.7z"/>
<path class="st0" d="M116.8,197.5l-74.1-42.8c-0.8,1.4-1.6,2.9-2.4,4.3l74.1,42.8C115.2,200.3,116,198.9,116.8,197.5z"/>
<path class="st0" d="M564.8,314.4l84.9-3c-0.1-1.6-0.1-3.3-0.2-4.9l-84.9,3C564.6,311.1,564.7,312.8,564.8,314.4z"/>
<path class="st0" d="M562.4,286.2l83.7-14.8c-0.1-0.5-0.1-0.9-0.2-1.4l-78.4,13.8l78.2-15.1c-0.1-0.5-0.1-1-0.2-1.4l-28.8,5.6
	l28.8-6c-0.1-0.5-0.2-1.1-0.2-1.6l-83.5,16.2C562,283.1,562.2,284.7,562.4,286.2z"/>
<path class="st0" d="M561.2,278.1l25.1-4.9c-7.8,1.8-16.1,3.6-25,5.6c0,0.4,0.1,0.7,0.2,1.1l83.2-17.6l-0.5-2.6l-83.5,16.2
	C561,276.6,561.1,277.4,561.2,278.1z"/>
<path class="st0" d="M560.5,273.8c34.7-6.9,64.3-12.6,83.5-16.2c-0.1-0.4-0.2-0.8-0.2-1.2L560,271.1
	C560.2,272,560.3,272.9,560.5,273.8z"/>
<path class="st0" d="M439.6,110.2l39.8-74.8c-1.5-0.7-2.9-1.4-4.4-2.2L435.2,108C436.6,108.8,438.1,109.5,439.6,110.2z"/>
<path class="st0" d="M475.4,132.3l54.5-65.7l-1.2-0.9l-54.9,65.4C474.3,131.5,474.8,131.9,475.4,132.3z"/>
<path class="st0" d="M477.7,134.1l46.6-56.6L478.9,135l1.1,0.9l52.8-67c-0.7-0.6-1.4-1.1-2.2-1.7l-54.9,65.3
	C476.4,133,477,133.6,477.7,134.1z"/>
<path class="st0" d="M469.8,128.2C480,116,490,104.1,490,104.1l-19.8,24.4l1.1,0.8L525,63l-1.4-1l-46.3,55.1l44.6-56.3
	c-0.5-0.3-0.9-0.7-1.4-1l-52.8,67C468.4,127.2,469.1,127.7,469.8,128.2z"/>
<path class="st0" d="M344.9,84.5l7-83.5l-1.5-0.1l-7.3,83.5L344.9,84.5z"/>
<path class="st0" d="M339.7,84.2l6.8-83.5l-2.9-0.2L336.3,84C337.4,84,338.6,84.1,339.7,84.2z"/>
<path class="st0" d="M347.5,84.7l1.5-17.9l-1.2,17.9l1.4,0.1c2.5-35.1,4.5-64.1,5.9-83.6l-2-0.2c-1.8,20.2-4.4,50.3-7.4,83.5
	C346.2,84.6,346.9,84.7,347.5,84.7z"/>
<path class="st0" d="M335.6,84l6-83.6l-1.9-0.1c-1.4,19.6-3.4,48.5-5.9,83.6L335.6,84z"/>
<path class="st0" d="M342.4,84.3l7-83.5l-1.5-0.1l-7.3,83.5L342.4,84.3z"/>
<path class="st0" d="M310.9,84.1L305,0.6c-1.6,0.1-3.3,0.2-4.9,0.3l5.9,83.6C307.6,84.3,309.2,84.2,310.9,84.1z"/>
<path class="st0" d="M376.7,88.8l17.5-82.1c-1.6-0.3-3.2-0.6-4.8-0.9l-17.5,82.1C373.5,88.2,375.1,88.5,376.7,88.8z"/>
<path class="st0" d="M326.7,83.8V0h-3.5v83.8H326.7z"/>
<path class="st0" d="M278,87.9L260.5,5.8c-1.6,0.3-3.2,0.6-4.8,0.9l17.5,82.1C274.8,88.5,276.4,88.2,278,87.9z"/>
<path class="st0" d="M411.2,98.2l28.5-79.3l-1.4-0.5l-28.9,79.2L411.2,98.2z"/>
<path class="st0" d="M413.7,99.1l28.9-79.2l-1.6-0.6l-28.9,79.2L413.7,99.1z"/>
<path class="st0" d="M401.5,95L430,15.7l-2-0.6l-28.9,79.2L401.5,95z"/>
<path class="st0" d="M407.3,96.9l28.4-79.4l-1.5-0.5l-28.9,79.2L407.3,96.9z"/>
<path class="st0" d="M404.6,96l28.6-79.3l-1.4-0.5l-28.9,79.2L404.6,96z"/>
<path class="st0" d="M384.6,90.5l20.9-81.4l-1.4-0.3l-20.9,81.4L384.6,90.5z"/>
<path class="st0" d="M100,406.8l-79.5,30.9l0.5,1.4l79.7-30.5L100,406.8z"/>
<path class="st0" d="M98.6,402.8l-79.3,31.8c0.2,0.6,0.4,1.2,0.6,1.8l79.7-30.5C99.3,404.8,99,403.8,98.6,402.8z"/>
<path class="st0" d="M102.2,412.7l-79.5,31c0.2,0.5,0.4,0.9,0.5,1.4l79.7-30.6C102.7,414,102.5,413.4,102.2,412.7z"/>
<path class="st0" d="M101.4,410.4l-79.5,31l0.5,1.4l79.7-30.5C101.8,411.6,101.6,411,101.4,410.4z"/>
<path class="st0" d="M103.3,415.5L24,447.1l0.7,1.7L104,417C103.8,416.5,103.6,416,103.3,415.5z"/>
<path class="st0" d="M323.2,556.9v83.8h3.5v-83.8H323.2z"/>
<path class="st0" d="M400.8,545.8c12.2,33.5,22.2,61,28.9,79.2l1.3-0.4l-28.9-79.2L400.8,545.8z"/>
<path class="st0" d="M409.1,543.1l28.5,79.4l1.6-0.5l-4-11.5l4.1,11.5l1.6-0.5L412,542.3L409.1,543.1z"/>
<path class="st0" d="M404.6,544.6l28.1,79.5l1.5-0.5L406.7,544L404.6,544.6z"/>
<path class="st0" d="M467.3,514.2l50.3,68.7l2.3-1.6l-50.1-68.9C469,513,468.1,513.6,467.3,514.2z"/>
<path class="st0" d="M462.9,517.1L513,586l1.6-1l-50.1-69L462.9,517.1z"/>
<path class="st0" d="M465.3,515.5l50.4,68.7l1.2-0.8l-50.1-68.9C466.3,514.8,465.8,515.2,465.3,515.5z"/>
<path class="st0" d="M499,487.8l59.8,61.1l1.3-1.3l-59.5-61.5L499,487.8z"/>
<path class="st0" d="M493.7,492.9l59.7,61.2l1.1-1l-59.4-61.5L493.7,492.9z"/>
<path class="st0" d="M484.4,501.2l59.5,61.5c1.4-1.2,2.7-2.4,4.1-3.6l-59.4-61.5C487.2,498.9,485.8,500,484.4,501.2z"/>
<path class="st0" d="M496,490.7l59.7,61.2l1.1-1l-59.4-61.5L496,490.7z"/>
<path class="st0" d="M490.3,496l59.8,61.1l1.9-1.8l-59.4-61.5C491.9,494.6,491.1,495.3,490.3,496z"/>
<path class="st0" d="M479.4,505.2l54.9,65.3l1.1-0.9l-54.9-65.3L479.4,505.2z"/>
<path class="st0" d="M339,556.5l5.9,83.6l4.9-0.3l-5.9-83.6C342.3,556.3,340.7,556.4,339,556.5z"/>
<path class="st0" d="M392.3,548.2l24.4,80.5l3.4-0.9l-24.4-80.5L392.3,548.2z"/>
<path class="st0" d="M371.9,552.7l17.5,82.1c1.6-0.3,3.2-0.6,4.8-0.9l-17.5-82.1C375.1,552.1,373.5,552.4,371.9,552.7z"/>
<path class="st0" d="M435.2,532.6l39.8,74.8c1.5-0.7,3-1.4,4.4-2.2l-39.8-74.8C438.1,531.2,436.7,531.9,435.2,532.6z"/>
<path class="st0" d="M563.5,344.9l61.9,5.4c-16.3-0.3-37.7-1.5-62.1-3.2c0,0.4-0.1,0.7-0.1,1L648,353c0.1-0.7,0.1-1.4,0.2-2.1
	l-84.6-7.4C563.6,344,563.5,344.4,563.5,344.9z"/>
<path class="st0" d="M562.8,351.2l84.5,8.9c0-0.5,0.1-0.9,0.2-1.4l-72.7-7.6l72.8,6.4l0.2-1.4l-84.6-7.4
	C563,349.5,562.9,350.4,562.8,351.2z"/>
<path class="st0" d="M563.9,340.9l7.5,0.8l-7.5-0.6c0,0.6-0.1,1.2-0.2,1.9l84.6,6.9l0.1-1.4l-84.5-8.9
	C564,339.9,563.9,340.4,563.9,340.9z"/>
<path class="st0" d="M514.5,470.4l67.5,52.7l2.1-2.7l-67.5-52.7C515.9,468.6,515.2,469.5,514.5,470.4z"/>
<path class="st0" d="M557.2,382.4l82.6,20.6l0.5-2c-18.8-5.5-53-15.2-81.9-23.5C557.9,379.2,557.6,380.8,557.2,382.4z"/>
<path class="st0" d="M558.7,375.9l82.5,20.7c0.1-0.6,0.2-1.1,0.4-1.7L559,374.3C558.9,374.8,558.8,375.4,558.7,375.9z"/>
<path class="st0" d="M564.8,324l85,1.1v-1.4l-85-1.1C564.8,323.1,564.8,323.6,564.8,324z"/>
<path class="st0" d="M555.3,389.6l81.8,23.7c0.4-1.6,0.8-3.1,1.3-4.7l-81.8-23.7C556.1,386.5,555.7,388,555.3,389.6z"/>
<path class="st0" d="M548.4,410.6l78.9,32.6c0.2-0.5,0.4-1,0.6-1.5l-78.6-33.3C549,409.1,548.7,409.9,548.4,410.6z"/>
<path class="st0" d="M546.2,416.1l11.1,4.7l-11.2-4.5c-0.2,0.4-0.3,0.9-0.5,1.3l79.2,32c0.2-0.5,0.4-1,0.6-1.5
	c-14.2-6-42.5-18.1-78.6-33.4L546.2,416.1z"/>
<path class="st0" d="M550.1,406.1l79,32.3c0.4-1,0.8-2.1,1.1-3.1l-79.2-32C550.7,404.2,550.4,405.2,550.1,406.1z"/>
<path class="st0" d="M522.1,460.4l70.1,49.1c0.7-0.9,1.3-1.9,2-2.9L524,457.5C523.4,458.5,522.7,459.5,522.1,460.4z"/>
<path class="st0" d="M533.1,443.2l74.1,42.8c0.8-1.4,1.6-2.9,2.4-4.3L535.5,439C534.7,440.3,533.9,441.7,533.1,443.2z"/>
<path class="st0" d="M248.7,545.7L220.1,625c0.6,0.2,1.2,0.4,1.8,0.5l28.9-79.2L248.7,545.7z"/>
<path class="st0" d="M242,543.5l-28.6,79.3l1.4,0.5l28.9-79.2L242,543.5z"/>
<path class="st0" d="M236.2,541.5c-12.2,33.6-22.2,61.1-28.9,79.2l1.8,0.6l28.9-79.2C237.4,542,236.8,541.8,236.2,541.5z"/>
<path class="st0" d="M239.4,542.7L210.9,622l1.4,0.5l28.9-79.2L239.4,542.7z"/>
<path class="st0" d="M245.8,544.8l-28.4,79.4l1.5,0.5l28.9-79.2L245.8,544.8z"/>
<path class="st0" d="M85.1,326.2l-84.9,3c0.1,1.6,0.1,3.3,0.2,4.9l84.9-3C85.3,329.5,85.2,327.9,85.1,326.2z"/>
<path class="st0" d="M89.5,367c-34.5,6.8-64,12.5-83.5,16c0.1,0.4,0.2,0.8,0.2,1.2l83.7-14.7C89.7,368.6,89.6,367.8,89.5,367z"/>
<path class="st0" d="M88.5,361.2L5.2,378.4c0.2,0.9,0.3,1.8,0.5,2.7l83.5-16.2C88.9,363.7,88.7,362.4,88.5,361.2z"/>
<path class="st0" d="M87.5,354.4L3.8,369.1c0.1,0.5,0.1,0.9,0.2,1.4l72.7-12.8l-72.6,14c0.1,0.5,0.1,1,0.2,1.5l67.2-13l-0.1,1.6
	L4.6,374.7l0.2,1.4l83.5-16.2C88,358,87.7,356.2,87.5,354.4z"/>
<path class="st0" d="M95.6,392.9l-81.1,26.3c0.3,1.1,0.7,2.2,1,3.3l81.1-26.3C96.2,395.2,95.9,394.1,95.6,392.9z"/>
<path class="st0" d="M85.1,316.6l-85-1.1v1.4L85,318C85,317.5,85.1,317.1,85.1,316.6z"/>
<path class="st0" d="M94.6,251l-81.8-23.7c-0.4,1.6-0.9,3.1-1.3,4.7l81.8,23.7C93.8,254.2,94.2,252.6,94.6,251z"/>
<path class="st0" d="M116.4,442.4l-73.2,44.3c1.2,2,2.3,4,3.5,6l73.3-44.3C118.7,446.4,117.5,444.4,116.4,442.4z"/>
<path class="st0" d="M86.5,295l-84.7-6.9c0,0.5-0.1,1-0.1,1.5l84.6,7.4C86.3,296.4,86.4,295.7,86.5,295z"/>
<path class="st0" d="M86.6,293.6L2,286.1c0,0.5-0.1,0.9-0.1,1.4l84.6,7.4C86.5,294.5,86.6,294,86.6,293.6z"/>
<path class="st0" d="M86.1,298.8c-32.9-2.8-63-5.4-84.6-7.7c0,0.4-0.1,0.8-0.1,1.2l84.5,8.9C86,300.4,86,299.6,86.1,298.8z"/>
<path class="st0" d="M63.5,288.3l23.4,2.5c0.1-0.5,0.1-0.9,0.2-1.4l-84.5-8.9c-0.1,0.9-0.2,1.7-0.3,2.6
	C26.9,285.3,63.4,288.5,63.5,288.3z"/>
<path class="st0" d="M92.7,258.2l-82.6-20.6c-0.1,0.4-0.2,0.9-0.3,1.4l82.6,20.6C92.5,259.1,92.6,258.6,92.7,258.2z"/>
<path class="st0" d="M91.2,264.7L8.7,244c-0.1,0.6-0.3,1.2-0.4,1.8l82.6,20.6L91.2,264.7z"/>
<path class="st0" d="M91.6,263.1c-16-4.5-29.7-8.4-29.8-8.5l30,8c0.1-0.5,0.2-0.9,0.3-1.4l-82.2-22c-0.1,0.6-0.3,1.2-0.4,1.8
	l81.9,23.5C91.4,264,91.5,263.5,91.6,263.1z"/>
<path class="st0" d="M103.3,225.4l-78.9-32.6c-0.2,0.5-0.4,1-0.6,1.5l78.6,33.3C102.7,226.9,103,226.2,103.3,225.4z"/>
<path class="st0" d="M100.1,233.7l-79-32.4c-0.2,0.5-0.4,1-0.6,1.5l49.4,20.9l-49.6-20.2c-0.2,0.6-0.4,1.2-0.6,1.7l79.2,32
	C99.2,236.1,99.7,234.9,100.1,233.7z"/>
<path class="st0" d="M102.3,227.8l-78.7-33.1c-0.2,0.4-0.4,0.9-0.5,1.4l78.6,33.3L102.3,227.8z"/>
<path class="st0" d="M104.2,223L25,191.1c-0.2,0.4-0.3,0.8-0.5,1.2c23.5,9.4,50.3,20.1,79.2,31.9C104,223.7,104.1,223.4,104.2,223z"
	/>
<path class="st0" d="M101.7,229.4l-78.7-33l-0.5,1.4l78.6,33.3C101.3,230.5,101.5,230,101.7,229.4z"/>
<path class="st0" d="M265.3,550.1l-20.9,81.4l1.4,0.3l20.9-81.4L265.3,550.1z"/>
<path class="st0" d="M210.3,530.5l-39.8,74.8c1.5,0.7,2.9,1.4,4.4,2.1l39.8-74.8C213.3,531.9,211.8,531.2,210.3,530.5z"/>
<path class="st0" d="M123.5,454l-71,47.8c0.6,1,1.3,1.9,1.9,2.9l71-47.8C124.8,455.9,124.1,455,123.5,454z"/>
<path class="st0" d="M273.2,551.8L255.7,634c1.6,0.3,3.2,0.6,4.8,0.9l17.5-82.2C276.4,552.4,274.8,552.1,273.2,551.8z"/>
<path class="st0" d="M314.5,556.7l-6,83.6l1.7,0.1c1.4-19.6,3.4-48.5,5.9-83.6L314.5,556.7z"/>
<path class="st0" d="M304,556.1l-7,83.5l1.5,0.1l7.3-83.5L304,556.1z"/>
<path class="st0" d="M311.2,556.5l-6.7,83.5l1.6,0.1l7.3-83.5L311.2,556.5z"/>
<path class="st0" d="M303.2,556c-0.8-0.1-1.6-0.1-2.4-0.2l-5.8,83.6l1.4,0.1l2.3-33.4C298.8,606,300.7,585.5,303.2,556z"/>
<path class="st0" d="M306.6,556.3l-7,83.5l2.8,0.2l7.3-83.5L306.6,556.3z"/>
<path class="st0" d="M130.7,464.4l-67.5,52.7l0.8,1.1l67.5-52.7L130.7,464.4z"/>
<path class="st0" d="M135.1,470.1l-68,52.1c0.3,0.4,0.7,0.8,1,1.2L88,508.5l-19.7,15.1l1,1.2l10.3-7.8l-10.2,8
	c0.4,0.5,0.8,1,1.2,1.4l67.5-52.7C137.1,472.5,136.1,471.3,135.1,470.1z"/>
<path class="st0" d="M132.6,466.9L64.7,519l1,1.2l68.4-51.5L132.6,466.9z"/>
<path class="st0" d="M177.1,510.3l-54.1,66l1.3,1l14.9-17.8l-14.8,17.9l1.3,0.9l55-65.4C179.5,512,178.3,511.1,177.1,510.3z"/>
<path class="st0" d="M180.8,512.9l-52.9,66.9l1.5,1.1c11.7-14.8,30.1-38.2,52.8-67C181.7,513.6,181.3,513.3,180.8,512.9z"/>
<path class="st0" d="M174.1,508l-54.4,65.7l1.2,0.9l54.9-65.4L174.1,508z"/>
<path class="st0" d="M172,506.4l-29.3,35.2l13.9-17.6c0.1,0,6.3-7.3,15.1-17.8c-0.6-0.5-1.2-0.9-1.8-1.4l-52.8,67l1.3,1
	c9.2-10.8,31.1-36.9,55-65.3L172,506.4z"/>
<path class="st0" d="M155.4,492.2L96,553.6c1.2,1.1,2.4,2.2,3.6,3.3l59.4-61.5C157.8,494.4,156.6,493.3,155.4,492.2z"/>
</svg>
